<?xml version="1.0" encoding="iso-8859-1"?>
<!-- Generator: Adobe Illustrator 19.0.0, SVG Export Plug-In . SVG Version: 6.00 Build 0)  -->
<svg version="1.1" id="Layer_1" xmlns="http://www.w3.org/2000/svg" xmlns:xlink="http://www.w3.org/1999/xlink" x="0px" y="0px"
	 viewBox="0 0 512 512" style="enable-background:new 0 0 512 512;" xml:space="preserve">
<circle style="fill:#CFDBE6;" cx="256" cy="256" r="256"/>
<path style="fill:#B8C9D9;" d="M218.648,367.48L346.64,495.471c69.394-26.281,124.392-81.841,149.885-151.619L321.662,168.986
	L218.648,367.48z"/>
<path style="fill:#D83E20;" d="M198.156,321.982c-29.146,0-52.774,23.628-52.774,52.774v112.173
	c33.32,15.989,70.635,24.978,110.044,25.064V321.984h-57.27V321.982z"/>
<path style="fill:#C1321F;" d="M313.844,321.982h-58.418v190.009c0.191,0,0.383,0.009,0.574,0.009
	c39.621,0,77.136-9.004,110.618-25.073V374.755C366.618,345.609,342.99,321.982,313.844,321.982z"/>
<path style="fill:#FFD15D;" d="M243.071,511.676C247.355,511.89,251.664,512,256,512c4.336,0,8.645-0.11,12.929-0.324V316.337
	h-25.859V511.676z"/>
<path style="fill:#F9B54C;" d="M255.426,316.337v195.656c0.191,0,0.383,0.007,0.574,0.007c4.336,0,8.645-0.11,12.929-0.324V316.337
	H255.426z"/>
<circle style="fill:#F4E3C3;" cx="256" cy="248.535" r="85.52"/>
<path style="fill:#FED8B2;" d="M256,163.009c-0.193,0-0.381,0.014-0.574,0.014v171.01c0.193,0.002,0.381,0.016,0.574,0.016
	c47.232,0,85.52-38.288,85.52-85.52S303.232,163.009,256,163.009z"/>
<g>
	<path style="fill:#324A5E;" d="M230.141,272.089h-17.239c-1.903,0-3.448-1.545-3.448-3.448s1.545-3.448,3.448-3.448h17.239
		c1.903,0,3.448,1.545,3.448,3.448S232.046,272.089,230.141,272.089z"/>
	<path style="fill:#324A5E;" d="M299.098,272.089h-17.239c-1.903,0-3.448-1.545-3.448-3.448s1.545-3.448,3.448-3.448h17.239
		c1.903,0,3.448,1.545,3.448,3.448S301.003,272.089,299.098,272.089z"/>
</g>
<path style="fill:#FD8469;" d="M256,310.877c-7.604,0-13.791-6.187-13.791-13.791c0-1.903,1.545-3.448,3.448-3.448
	s3.448,1.545,3.448,3.448c0,3.803,3.093,6.896,6.896,6.896c3.803,0,6.896-3.093,6.896-6.896c0-1.903,1.545-3.448,3.448-3.448
	s3.448,1.545,3.448,3.448C269.791,304.69,263.604,310.877,256,310.877z"/>
<path style="fill:#FC6F58;" d="M266.343,293.638c-1.903,0-3.448,1.545-3.448,3.448c0,3.803-3.093,6.896-6.896,6.896
	c-0.197,0-0.381-0.041-0.574-0.059v6.925c0.191,0.009,0.381,0.029,0.574,0.029c7.604,0,13.791-6.187,13.791-13.791
	C269.791,295.183,268.247,293.638,266.343,293.638z"/>
<path style="fill:#C1321F;" d="M256,136.454c-0.193,0-0.381,0.014-0.574,0.016v82.542h83.13
	C338.556,173.415,301.594,136.454,256,136.454z"/>
<path style="fill:#D83E20;" d="M173.444,219.01h81.982v-82.542C210.098,136.778,173.444,173.608,173.444,219.01z"/>
<path style="fill:#FFD15D;" d="M222.977,219.01c0-45.594,14.784-82.556,33.023-82.556c18.237,0,33.023,36.962,33.023,82.556H222.977
	z"/>
<path style="fill:#F9B54C;" d="M256,136.454c-0.193,0-0.383,0.028-0.574,0.036v82.52h33.597
	C289.023,173.415,274.237,136.454,256,136.454z"/>
<rect x="168.443" y="213.506" style="fill:#C1321F;" width="175.114" height="35.025"/>
<rect x="255.431" y="213.506" style="fill:#A82116;" width="88.126" height="35.025"/>
<circle style="fill:#FFD15D;" cx="256" cy="232.02" r="13.509"/>
<path style="fill:#F9B54C;" d="M256,218.508c-0.193,0-0.383,0.021-0.574,0.029v26.96c0.191,0.009,0.381,0.029,0.574,0.029
	c7.461,0,13.509-6.049,13.509-13.509S263.461,218.508,256,218.508z"/>
<g>
</g>
<g>
</g>
<g>
</g>
<g>
</g>
<g>
</g>
<g>
</g>
<g>
</g>
<g>
</g>
<g>
</g>
<g>
</g>
<g>
</g>
<g>
</g>
<g>
</g>
<g>
</g>
<g>
</g>
</svg>
