<?xml version="1.0" encoding="iso-8859-1"?>
<!-- Generator: Adobe Illustrator 19.0.0, SVG Export Plug-In . SVG Version: 6.00 Build 0)  -->
<svg version="1.1" id="Layer_1" xmlns="http://www.w3.org/2000/svg" xmlns:xlink="http://www.w3.org/1999/xlink" x="0px" y="0px"
	 viewBox="0 0 496.2 496.2" style="enable-background:new 0 0 496.2 496.2;" xml:space="preserve">
<path style="fill:#48A1AF;" d="M248.1,0C111.1,0,0,111.1,0,248.1s111.1,248.1,248.1,248.1s248.1-111.1,248.1-248.1S385.1,0,248.1,0z
	"/>
<g>
	<path style="fill:#D5D8DB;" d="M418.5,382.8c-8.5-27.3-81.2-49.3-170.8-49.3s-161.5,22-170,49.3c-2.6,8.5-5.5,22.2-8.3,37.4
		c45.1,46.9,108.5,76,178.7,76s133.6-29.2,178.7-76C424.1,405,421.2,391.2,418.5,382.8z"/>
	<path style="fill:#D5D8DB;" d="M423.6,403.4c-44.9,44.9-106.9,72.8-175.5,72.8s-130.6-27.8-175.5-72.8c-1.1,5.2-2.2,10.9-3.2,16.7
		c45.1,46.9,108.5,76,178.7,76s133.6-29.2,178.7-76C425.8,414.3,424.7,408.6,423.6,403.4z"/>
</g>
<path style="fill:#AAACAD;" d="M419.6,386.3c-44.5,42.6-104.9,68.8-171.5,68.8c-66.5,0-126.9-26.2-171.5-68.8
	c-1.3,4.7-2.7,10.6-4,17.1c44.9,44.9,106.9,72.8,175.5,72.8c68.5,0,130.6-27.8,175.5-72.8C422.2,396.9,420.9,391.1,419.6,386.3z"/>
<path style="fill:#D5D8DB;" d="M418.5,382.8c-1.1-3.7-3.5-7.3-6.8-10.7c-43.7,38.4-100.9,61.6-163.6,61.6s-120-23.3-163.6-61.6
	c-3.4,3.5-5.7,7-6.8,10.7c-0.3,1.1-0.7,2.3-1,3.6c44.5,42.6,104.9,68.8,171.5,68.8c66.5,0,126.9-26.2,171.5-68.8
	C419.2,385.1,418.9,383.9,418.5,382.8z"/>
<path style="fill:#AAACAD;" d="M399.4,362.7c-41.9,32.3-94.4,51.5-151.3,51.5c-57,0-109.5-19.2-151.4-51.6c-5,3-9.1,6.1-12.2,9.4
	c43.7,38.4,100.9,61.6,163.6,61.6S368,410.3,411.7,372C408.5,368.8,404.4,365.6,399.4,362.7z"/>
<path style="fill:#D5D8DB;" d="M383.2,354.7c-38.9,25.3-85.3,40-135.1,40c-49.9,0-96.3-14.7-135.2-40.1c-6.1,2.5-11.5,5.2-16.2,8
	c41.9,32.3,94.4,51.6,151.4,51.6s109.5-19.2,151.3-51.5C394.8,359.9,389.3,357.2,383.2,354.7z"/>
<path style="fill:#AAACAD;" d="M363.4,347.8c-34.4,18.1-73.7,28.4-115.3,28.4c-41.7,0-80.9-10.3-115.4-28.4
	c-7.2,2.1-13.8,4.4-19.8,6.9c38.9,25.3,85.3,40.1,135.2,40.1c49.8,0,96.2-14.7,135.1-40C377.2,352.2,370.6,349.9,363.4,347.8z"/>
<path style="fill:#D5D8DB;" d="M337.5,341.6c-27.7,10.7-57.9,16.6-89.4,16.6c-31.6,0-61.8-5.9-89.6-16.7c-9.2,1.8-17.9,3.9-25.9,6.2
	c34.5,18.2,73.8,28.4,115.4,28.4s80.8-10.3,115.3-28.4C355.4,345.5,346.7,343.4,337.5,341.6z"/>
<path style="fill:#AAACAD;" d="M247.7,333.4c-32.9,0-63.3,3-89.2,8.1c27.8,10.8,58,16.7,89.6,16.7c31.5,0,61.7-5.9,89.4-16.6
	C311.4,336.4,280.7,333.4,247.7,333.4z"/>
<path style="fill:#E2A379;" d="M202.1,282.1c0,0,7.7,6,7.7,43.9c-1.3-1.3,38,55.7,38,55.7l38.4-55.7c0-38,7.9-43.9,7.9-43.9H202.1z"
	/>
<g>
	<polygon style="fill:#C11111;" points="209.8,326.1 190.4,336.6 244.1,402.1 253,389.4 	"/>
	<polygon style="fill:#C11111;" points="253,389.4 244.1,402.1 248.1,431.9 261.1,420.1 	"/>
	<polygon style="fill:#C11111;" points="286.2,326.1 242.7,389.2 251.6,401.9 305.6,336.6 	"/>
	<polygon style="fill:#C11111;" points="243,389.4 234.9,420.1 247.9,431.9 251.9,402.1 	"/>
</g>
<path style="fill:#F4B382;" d="M248.1,65.6c-48.7,0-88.3,21.2-88.3,113.6c0,31.3,6.2,55.8,15.5,74.7c20.4,41.6,55.7,56.1,72.8,56.1
	s52.4-14.5,72.8-56.1c9.3-18.9,15.5-43.4,15.5-74.7C336.4,86.8,296.8,65.6,248.1,65.6z"/>
<g>
	<path style="fill:#2B1407;" d="M247.9,246.1c-2-2-5.2-2-7.1-0.1c-2,2-4.9,3.6-8.1,4.7c-3.2,1.1-6.7,1.8-10.3,2.1
		c-3.6,0.4-7.3,0.4-11,0.3s-7.4-0.5-11.1-1.1c3.5,1.4,7.1,2.5,10.8,3.5s7.4,1.7,11.3,2.2c3.9,0.5,7.8,0.6,11.9,0.2
		c4.1-0.4,8.4-1.5,12.4-3.9l0.3-0.2c0.3-0.2,0.7-0.4,0.9-0.7C249.8,251.3,249.8,248.1,247.9,246.1z"/>
	<path style="fill:#2B1407;" d="M284.9,253.2c-3.7,0.1-7.4,0.1-11-0.3s-7.1-1-10.3-2.1c-3.2-1.1-6.1-2.7-8.1-4.7
		c-2-2-5.2-1.9-7.1,0.1c-1.9,2-1.9,5.2,0.1,7.1c0.3,0.3,0.6,0.5,0.9,0.7l0.3,0.2c4,2.4,8.3,3.5,12.4,3.9s8.1,0.3,11.9-0.2
		c3.9-0.5,7.6-1.2,11.3-2.2c3.7-1,7.3-2.1,10.8-3.5C292.3,252.7,288.6,253,284.9,253.2z"/>
</g>
<path style="fill:#C97565;" d="M259.8,260.1c-3.3-0.4-11.7,2.5-11.7,2.5s-8.5-2.9-11.8-2.5c-5.4,0.7-13.4,7.6-13.4,9
	c0,2.2,11.3,5.2,25.2,5.2s25.2-3,25.2-5.2C273.3,269.1,265.2,260.8,259.8,260.1z"/>
<path style="fill:#BA654F;" d="M248.1,267.2c-14.9,0-25.2,1.9-25.2,1.9c0,2.2,11.3,7.8,25.2,7.8s25.2-5.5,25.2-7.8
	C273.3,269.1,263,267.2,248.1,267.2z"/>
<g>
	<path style="fill:#AF7F5F;" d="M256,201.7c0-11.4-3.8-14.4-3.8-14.4c2.2,8.3,2,15.2,2.3,21.7c0.4,9.3,4.2,14.6,4.2,14.6
		C257,219.7,256,213.1,256,201.7z"/>
	<path style="fill:#AF7F5F;" d="M234.1,231.4c0,0-6.5,12.7,5.1,11.5C239.2,242.9,231.6,240.5,234.1,231.4z"/>
	<path style="fill:#AF7F5F;" d="M262.1,231.4c2.5,9.1-5.1,11.5-5.1,11.5C268.6,244.8,262.1,231.4,262.1,231.4z"/>
</g>
<path style="fill:#2B1407;" d="M305.7,168.6c-7.4-6.4-19.1-6-25.4-5.1c-1.1,0.1-2.1,0.3-3.1,0.5c-0.3,0.1-0.9,1.1-0.9,1.1
	s-0.5-0.8-0.8-0.8c-5,1-9,2.5-11,3.7l-0.3,0.2c-2.3,1.3-5.1,3-3.4,7.4c0.9,2.2,2.4,3.4,4.2,3.2c0.4,0,0.8-0.2,1.2-0.3
	c0.5-0.2,1.2-0.7,1.8-1.1c0.4-0.2,0.7-0.5,1.1-0.7c0.4-0.3,0.9-0.5,1.3-0.7c0.6-0.3,1.5-2.8,1.5-2.8s1.6,1.4,2.3,1.2
	c2.8-1.1,5.9-1.8,9.2-2.2c8.9-1.1,16.4,0.4,18.3,1c1.4,0.4,2.4,0.6,3.2,0.5c1.5-0.2,1.9-1.3,2-1.8
	C307.2,170.6,306.7,169.4,305.7,168.6z"/>
<path style="fill:#EADAD0;" d="M281.5,181.4c-9.3-0.2-18.5,8.1-18.5,8.1s7.2,6.5,16.6,7.3c10.6,0.9,18.3-9.2,18.3-9.2
	S292.3,181.6,281.5,181.4z"/>
<circle style="fill:#3A1A05;" cx="281.2" cy="188" r="7.5"/>
<g>
	<path style="fill:#876249;" d="M279.5,195.1c-9.3-0.7-16.6-5.8-16.6-5.8s7.2,7.6,16.6,7.6c16.7,0,18.3-9.1,18.3-9.1
		S290.1,195.8,279.5,195.1z"/>
	<path style="fill:#876249;" d="M281.5,179.8c-12.2,0-18.5,9.4-18.5,9.4s9.2-6.6,18.5-6.4c10.8,0.2,16.3,4.9,16.3,4.9
		S295.9,179.8,281.5,179.8z"/>
</g>
<path style="fill:#2B1407;" d="M231.9,168.2l-0.3-0.2c-2-1.2-6-2.7-11-3.7c-0.2,0-0.8,0.8-0.8,0.8s-0.5-1-0.9-1.1
	c-1-0.2-2.1-0.4-3.1-0.5c-6.3-0.8-17.9-1.2-25.4,5.1c-1,0.8-1.4,2-1.2,3.1c0.1,0.5,0.5,1.6,2,1.8c0.8,0.1,1.8-0.1,3.2-0.5
	c1.9-0.6,9.4-2.1,18.3-1c3.3,0.4,6.4,1.2,9.2,2.2c0.7,0.3,2.3-1.2,2.3-1.2s0.9,2.5,1.5,2.8c0.5,0.2,0.9,0.5,1.3,0.7
	c0.3,0.2,0.7,0.4,1.1,0.7c0.7,0.4,1.3,0.8,1.8,1.1c0.4,0.2,0.8,0.3,1.2,0.3c1.8,0.2,3.3-0.9,4.2-3.2
	C237,171.2,234.2,169.5,231.9,168.2z"/>
<path style="fill:#EADAD0;" d="M214.7,181.4c-10.8,0.2-16.3,6.2-16.3,6.2s7.7,10.1,18.3,9.2c9.3-0.8,16.6-7.3,16.6-7.3
	S224,181.2,214.7,181.4z"/>
<circle style="fill:#3A1A05;" cx="215" cy="188" r="7.5"/>
<g>
	<path style="fill:#876249;" d="M216.7,195.1c-10.6,0.8-18.3-7.3-18.3-7.3s1.6,9.1,18.3,9.1c9.4,0,16.6-7.6,16.6-7.6
		S226,194.4,216.7,195.1z"/>
	<path style="fill:#876249;" d="M214.7,179.8c-14.4,0-16.3,7.9-16.3,7.9s5.5-4.7,16.3-4.9c9.3-0.2,18.5,6.4,18.5,6.4
		S226.9,179.8,214.7,179.8z"/>
</g>
<path style="fill:#F4B382;" d="M161.4,178c-8.4,1.4-14.9,5.1-10.1,32.9s10.7,29.1,19.1,27.7L161.4,178z"/>
<g>
	<path style="fill:#2B1407;" d="M248.1,61.6c-48.7,0-88.3,21.2-88.3,113.6c0,0,8.4-26.5,20.5-30.8c20.4-7.3,29.6-44.3,37.8-27.3
		c15,31,79.5,19.8,98.5,27.1c11.6,4.4,19.7,31,19.7,31C336.4,82.8,296.8,61.6,248.1,61.6z"/>
	<path style="fill:#2B1407;" d="M180.1,174.9l-14.6-34.1c-4.2,10.9-5.6,24.4-5.6,37.5c0,0,8.8-1.9,8.8,2.6l2.8,27.6l3.9-1.9
		C175,183.6,180.1,174.9,180.1,174.9z"/>
</g>
<path style="fill:#F4B382;" d="M334.9,178l-9,60.6c8.4,1.4,14.3,0.1,19.1-27.7C349.7,183.1,343.3,179.5,334.9,178z"/>
<path style="fill:#2B1407;" d="M330.8,140.8l-14.6,34.1c0,0,5.1,8.8,4.9,31.8l3.9,1.9l2.8-27.6c0-4.5,8.8-2.6,8.8-2.6
	C336.5,165.1,335.1,151.7,330.8,140.8z"/>
<g>
	<path style="fill:#3F1E0B;" d="M357.1,106.1c-11.1-10.6-34-30-78-42.7S193.6,48.9,187,49.3c-29.7,2.1-52.6,21.5-51.1,43.4
		s26.9,38,56.7,35.9c6.2-0.4,120.4,35.4,129.7,40.2c26.6,13.5,55,11,63.4-5.6C394.2,146.7,378.7,126.7,357.1,106.1z"/>
	<path style="fill:#3F1E0B;" d="M306.1,57.6c-1.4-2.4-4.4-3.2-6.8-1.9c-10.1,5.8-18.5,16.9-18.9,17.3c-1.7,2.2-1.2,5.3,1,7
		c0.9,0.7,2,1,3,1c1.5,0,3-0.7,4-2c0.1-0.1,7.5-9.9,15.8-14.7C306.6,63.1,307.5,60,306.1,57.6z"/>
</g>
<g>
</g>
<g>
</g>
<g>
</g>
<g>
</g>
<g>
</g>
<g>
</g>
<g>
</g>
<g>
</g>
<g>
</g>
<g>
</g>
<g>
</g>
<g>
</g>
<g>
</g>
<g>
</g>
<g>
</g>
</svg>
